<svg xmlns="http://www.w3.org/2000/svg" xmlns:xlink="http://www.w3.org/1999/xlink" width="380" zoomAndPan="magnify" viewBox="0 0 285 239.999995" height="320" preserveAspectRatio="xMidYMid meet" version="1.0"><defs><clipPath id="0d1a84447d"><path d="M 9 220 L 38 220 L 38 240 L 9 240 Z M 9 220 " clip-rule="nonzero"/></clipPath><clipPath id="b1e56d34f4"><path d="M 9.179688 132.492188 L 152.898438 -11.226562 L 272.222656 108.097656 L 128.503906 251.816406 Z M 9.179688 132.492188 " clip-rule="nonzero"/></clipPath><clipPath id="fe11df26b3"><path d="M 8.921875 132.234375 L 152.640625 -11.484375 L 272.496094 108.371094 L 128.773438 252.089844 Z M 8.921875 132.234375 " clip-rule="nonzero"/></clipPath><clipPath id="5ab8a479ad"><path d="M 97 18 L 191 18 L 191 112 L 97 112 Z M 97 18 " clip-rule="nonzero"/></clipPath><clipPath id="c5d0f013a8"><path d="M 9.179688 132.492188 L 152.898438 -11.226562 L 272.222656 108.097656 L 128.503906 251.816406 Z M 9.179688 132.492188 " clip-rule="nonzero"/></clipPath><clipPath id="1ba2655451"><path d="M 8.921875 132.234375 L 152.640625 -11.484375 L 272.496094 108.371094 L 128.773438 252.089844 Z M 8.921875 132.234375 " clip-rule="nonzero"/></clipPath><clipPath id="f33bb86869"><path d="M 29 85 L 123 85 L 123 179 L 29 179 Z M 29 85 " clip-rule="nonzero"/></clipPath><clipPath id="206baff924"><path d="M 9.179688 132.492188 L 152.898438 -11.226562 L 272.222656 108.097656 L 128.503906 251.816406 Z M 9.179688 132.492188 " clip-rule="nonzero"/></clipPath><clipPath id="aa3018a54e"><path d="M 8.921875 132.234375 L 152.640625 -11.484375 L 272.496094 108.371094 L 128.773438 252.089844 Z M 8.921875 132.234375 " clip-rule="nonzero"/></clipPath><clipPath id="489cd33fc7"><path d="M 89 51 L 269 51 L 269 228 L 89 228 Z M 89 51 " clip-rule="nonzero"/></clipPath><clipPath id="fc2bec9137"><path d="M 9.179688 132.492188 L 152.898438 -11.226562 L 272.222656 108.097656 L 128.503906 251.816406 Z M 9.179688 132.492188 " clip-rule="nonzero"/></clipPath><clipPath id="5d30e937fc"><path d="M 8.921875 132.234375 L 152.640625 -11.484375 L 272.496094 108.371094 L 128.773438 252.089844 Z M 8.921875 132.234375 " clip-rule="nonzero"/></clipPath><clipPath id="97e09eb1ee"><path d="M 109 104 L 213 104 L 213 208 L 109 208 Z M 109 104 " clip-rule="nonzero"/></clipPath><clipPath id="fbb4487b90"><path d="M 9.179688 132.492188 L 152.898438 -11.226562 L 272.222656 108.097656 L 128.503906 251.816406 Z M 9.179688 132.492188 " clip-rule="nonzero"/></clipPath><clipPath id="8443bc1f32"><path d="M 8.921875 132.234375 L 152.640625 -11.484375 L 272.496094 108.371094 L 128.773438 252.089844 Z M 8.921875 132.234375 " clip-rule="nonzero"/></clipPath><clipPath id="25e2e9962e"><path d="M 209 57 L 263 57 L 263 111 L 209 111 Z M 209 57 " clip-rule="nonzero"/></clipPath><clipPath id="89295ebb67"><path d="M 9.179688 132.492188 L 152.898438 -11.226562 L 272.222656 108.097656 L 128.503906 251.816406 Z M 9.179688 132.492188 " clip-rule="nonzero"/></clipPath><clipPath id="c06d046b70"><path d="M 8.921875 132.234375 L 152.640625 -11.484375 L 272.496094 108.371094 L 128.773438 252.089844 Z M 8.921875 132.234375 " clip-rule="nonzero"/></clipPath></defs><g clip-path="url(#0d1a84447d)"><g clip-path="url(#b1e56d34f4)"><g clip-path="url(#fe11df26b3)"><path fill="#94a0a9" d="M -2.222656 240.457031 L 17.578125 220.65625 L 37.378906 240.457031 L 17.578125 260.257812 Z M -2.222656 240.457031 " fill-opacity="1" fill-rule="nonzero"/></g></g></g><g clip-path="url(#5ab8a479ad)"><g clip-path="url(#c5d0f013a8)"><g clip-path="url(#1ba2655451)"><path fill="#ff865b" d="M 111.320312 32.363281 C 93.1875 50.496094 93.1875 79.925781 111.320312 98.058594 C 118.621094 105.359375 127.730469 109.699219 137.214844 111.136719 L 145.375 102.972656 C 142.960938 102.511719 140.691406 101.335938 138.824219 99.46875 C 133.851562 94.496094 133.851562 86.449219 138.824219 81.476562 C 143.792969 76.503906 151.839844 76.503906 156.8125 81.476562 C 158.679688 83.34375 159.832031 85.644531 160.320312 88.03125 L 166.84375 81.503906 C 164.429688 81.046875 162.160156 79.867188 160.289062 78 C 155.320312 73.027344 155.320312 64.980469 160.289062 60.007812 C 165.261719 55.039062 173.308594 55.039062 178.28125 60.007812 C 183.253906 64.980469 183.253906 73.027344 178.28125 78 C 176.730469 79.550781 174.917969 80.613281 172.964844 81.191406 L 182.820312 91.046875 C 194.949219 73 192.996094 48.34375 177.046875 32.390625 C 158.824219 14.230469 129.453125 14.230469 111.320312 32.363281 Z M 131.007812 86.191406 C 126.035156 91.160156 117.988281 91.160156 113.015625 86.191406 C 108.042969 81.21875 108.042969 73.171875 113.015625 68.199219 C 117.988281 63.226562 126.035156 63.226562 131.007812 68.199219 C 135.976562 73.171875 135.949219 81.246094 131.007812 86.191406 Z M 135.144531 56.1875 C 130.171875 61.160156 122.125 61.160156 117.15625 56.1875 C 112.183594 51.214844 112.183594 43.167969 117.15625 38.199219 C 122.125 33.226562 130.171875 33.226562 135.144531 38.199219 C 140.085938 43.199219 140.085938 51.246094 135.144531 56.1875 Z M 165.117188 52.078125 C 160.148438 57.050781 152.101562 57.050781 147.128906 52.078125 C 142.15625 47.105469 142.15625 39.058594 147.128906 34.085938 C 152.101562 29.117188 160.148438 29.117188 165.117188 34.085938 C 170.089844 39.058594 170.089844 47.105469 165.117188 52.078125 Z M 165.117188 52.078125 " fill-opacity="1" fill-rule="nonzero"/></g></g></g><g clip-path="url(#f33bb86869)"><g clip-path="url(#206baff924)"><g clip-path="url(#aa3018a54e)"><path fill="#ff865b" d="M 43.238281 99.351562 C 25.105469 117.484375 25.105469 146.914062 43.238281 165.046875 C 56.863281 178.667969 76.863281 182.058594 93.648438 175.222656 L 86.605469 168.179688 C 81.691406 171.371094 75.023438 170.796875 70.714844 166.484375 C 65.742188 161.511719 65.742188 153.464844 70.714844 148.496094 C 75.683594 143.523438 83.730469 143.523438 88.703125 148.496094 C 90.800781 150.59375 92.007812 153.234375 92.324219 155.964844 L 99.652344 148.636719 C 96.921875 148.320312 94.277344 147.113281 92.179688 145.015625 C 87.210938 140.046875 87.210938 132 92.179688 127.027344 C 97.152344 122.054688 105.199219 122.054688 110.171875 127.027344 C 112.269531 129.125 113.476562 131.769531 113.792969 134.5 L 122.125 126.164062 C 120.832031 116.363281 116.464844 106.882812 108.9375 99.351562 C 90.800781 81.21875 61.375 81.21875 43.238281 99.351562 Z M 62.953125 153.207031 C 57.984375 158.179688 49.9375 158.179688 44.964844 153.207031 C 39.992188 148.234375 39.992188 140.1875 44.964844 135.21875 C 49.9375 130.246094 57.984375 130.246094 62.953125 135.21875 C 67.925781 140.1875 67.925781 148.234375 62.953125 153.207031 Z M 67.0625 123.175781 C 62.09375 128.148438 54.046875 128.148438 49.074219 123.175781 C 44.101562 118.203125 44.101562 110.15625 49.074219 105.1875 C 54.046875 100.214844 62.09375 100.214844 67.0625 105.1875 C 72.035156 110.15625 72.035156 118.203125 67.0625 123.175781 Z M 97.09375 101.078125 C 102.066406 106.046875 102.066406 114.09375 97.09375 119.066406 C 92.125 124.039062 84.078125 124.039062 79.105469 119.066406 C 74.132812 114.09375 74.132812 106.046875 79.105469 101.078125 C 84.046875 96.132812 92.125 96.105469 97.09375 101.078125 Z M 97.09375 101.078125 " fill-opacity="1" fill-rule="nonzero"/></g></g></g><g clip-path="url(#489cd33fc7)"><g clip-path="url(#fc2bec9137)"><g clip-path="url(#5d30e937fc)"><path fill="#94a0a9" d="M 189.71875 103.804688 L 170.003906 84.09375 L 89.164062 164.933594 L 151.8125 227.582031 L 232.652344 146.742188 L 216.503906 130.589844 L 268.230469 105.53125 L 214.519531 51.820312 Z M 189.71875 103.804688 " fill-opacity="1" fill-rule="nonzero"/></g></g></g><g clip-path="url(#97e09eb1ee)"><g clip-path="url(#fbb4487b90)"><g clip-path="url(#8443bc1f32)"><path fill="#ffffff" d="M 212.652344 146.972656 L 151.957031 207.667969 L 109.625 165.335938 L 170.292969 104.667969 L 212.621094 147 Z M 151.957031 201.917969 L 206.875 147 L 170.292969 110.417969 L 115.371094 165.335938 Z M 151.957031 201.917969 " fill-opacity="1" fill-rule="nonzero"/></g></g></g><g clip-path="url(#25e2e9962e)"><g clip-path="url(#89295ebb67)"><g clip-path="url(#c06d046b70)"><path fill="#ffffff" d="M 209.546875 62.195312 L 257.914062 110.558594 L 262.109375 108.492188 L 211.589844 57.96875 Z M 209.546875 62.195312 " fill-opacity="1" fill-rule="nonzero"/></g></g></g></svg>