<svg xmlns="http://www.w3.org/2000/svg" xmlns:xlink="http://www.w3.org/1999/xlink" width="4626" zoomAndPan="magnify" viewBox="0 0 3469.5 871.499969" height="1162" preserveAspectRatio="xMidYMid meet" version="1.0"><defs><g/><clipPath id="e26515c381"><path d="M 472 789 L 573 789 L 573 871 L 472 871 Z M 472 789 " clip-rule="nonzero"/></clipPath><clipPath id="22d5bac785"><path d="M 472.910156 478.578125 L 977.960938 -26.472656 L 1397.335938 392.902344 L 892.285156 897.953125 Z M 472.910156 478.578125 " clip-rule="nonzero"/></clipPath><clipPath id="27bc6160ac"><path d="M 471.996094 477.667969 L 977.050781 -27.386719 L 1400.933594 396.496094 L 895.878906 901.550781 Z M 471.996094 477.667969 " clip-rule="nonzero"/></clipPath><clipPath id="15e9ac322a"><path d="M 785 77 L 1113 77 L 1113 404 L 785 404 Z M 785 77 " clip-rule="nonzero"/></clipPath><clipPath id="c12e7b9e33"><path d="M 472.910156 478.578125 L 977.960938 -26.472656 L 1397.335938 392.902344 L 892.285156 897.953125 Z M 472.910156 478.578125 " clip-rule="nonzero"/></clipPath><clipPath id="544a91140d"><path d="M 471.996094 477.667969 L 977.050781 -27.386719 L 1400.933594 396.496094 L 895.878906 901.550781 Z M 471.996094 477.667969 " clip-rule="nonzero"/></clipPath><clipPath id="4848807600"><path d="M 545 313 L 872 313 L 872 642 L 545 642 Z M 545 313 " clip-rule="nonzero"/></clipPath><clipPath id="40f9e5a091"><path d="M 472.910156 478.578125 L 977.960938 -26.472656 L 1397.335938 392.902344 L 892.285156 897.953125 Z M 472.910156 478.578125 " clip-rule="nonzero"/></clipPath><clipPath id="446c261b1f"><path d="M 471.996094 477.667969 L 977.050781 -27.386719 L 1400.933594 396.496094 L 895.878906 901.550781 Z M 471.996094 477.667969 " clip-rule="nonzero"/></clipPath><clipPath id="019f4b4f5c"><path d="M 755 194 L 1387 194 L 1387 814 L 755 814 Z M 755 194 " clip-rule="nonzero"/></clipPath><clipPath id="1fb1a2ca79"><path d="M 472.910156 478.578125 L 977.960938 -26.472656 L 1397.335938 392.902344 L 892.285156 897.953125 Z M 472.910156 478.578125 " clip-rule="nonzero"/></clipPath><clipPath id="62ea81ef0e"><path d="M 471.996094 477.667969 L 977.050781 -27.386719 L 1400.933594 396.496094 L 895.878906 901.550781 Z M 471.996094 477.667969 " clip-rule="nonzero"/></clipPath><clipPath id="5c619d9756"><path d="M 827 380 L 1191 380 L 1191 744 L 827 744 Z M 827 380 " clip-rule="nonzero"/></clipPath><clipPath id="015f4f2fd5"><path d="M 472.910156 478.578125 L 977.960938 -26.472656 L 1397.335938 392.902344 L 892.285156 897.953125 Z M 472.910156 478.578125 " clip-rule="nonzero"/></clipPath><clipPath id="51d17ae5ca"><path d="M 471.996094 477.667969 L 977.050781 -27.386719 L 1400.933594 396.496094 L 895.878906 901.550781 Z M 471.996094 477.667969 " clip-rule="nonzero"/></clipPath><clipPath id="613b1cee4d"><path d="M 1179 215 L 1365 215 L 1365 402 L 1179 402 Z M 1179 215 " clip-rule="nonzero"/></clipPath><clipPath id="3742753b86"><path d="M 472.910156 478.578125 L 977.960938 -26.472656 L 1397.335938 392.902344 L 892.285156 897.953125 Z M 472.910156 478.578125 " clip-rule="nonzero"/></clipPath><clipPath id="9b252dcc70"><path d="M 471.996094 477.667969 L 977.050781 -27.386719 L 1400.933594 396.496094 L 895.878906 901.550781 Z M 471.996094 477.667969 " clip-rule="nonzero"/></clipPath></defs><g fill="#ffffff" fill-opacity="1"><g transform="translate(1501.223149, 422.146959)"><g><path d="M 104.328125 -193.140625 L 67.21875 -193.140625 L 69.953125 -185.53125 L 69.953125 -18.546875 C 69.953125 -9.222656 68.988281 -3.800781 67.0625 -2.28125 C 65.132812 -0.757812 58.695312 0 47.75 0 L 40.453125 0 L 40.453125 -185.53125 L 42.578125 -193.140625 L 6.078125 -193.140625 L 6.078125 -219 L 104.328125 -219 Z M 104.328125 -193.140625 "/></g></g></g><g fill="#ffffff" fill-opacity="1"><g transform="translate(1611.615257, 422.146959)"><g><path d="M 25.546875 0 L 18.25 0 L 18.25 -219.296875 L 61.75 -222.640625 C 80 -222.640625 92.566406 -220.003906 99.453125 -214.734375 C 102.085938 -212.703125 104.316406 -210.875 106.140625 -209.25 C 107.972656 -207.632812 109.5 -205.203125 110.71875 -201.953125 L 113.140625 -193.4375 C 114.566406 -189.59375 115.28125 -184.523438 115.28125 -178.234375 L 115.28125 -160.59375 C 115.28125 -131.394531 111.125 -113.144531 102.8125 -105.84375 C 99.15625 -102.601562 94.390625 -100.675781 88.515625 -100.0625 L 136.875 0 L 126.828125 0 C 116.691406 0 109.796875 -0.960938 106.140625 -2.890625 C 102.492188 -4.816406 99.148438 -9.226562 96.109375 -16.125 L 58.703125 -99.15625 L 44.40625 -99.15625 L 47.140625 -91.546875 L 47.453125 -18.546875 C 47.453125 -9.222656 46.535156 -3.800781 44.703125 -2.28125 C 42.878906 -0.757812 36.492188 0 25.546875 0 Z M 62.359375 -126.21875 C 73.304688 -126.21875 79.941406 -128.445312 82.265625 -132.90625 C 84.597656 -137.375 85.765625 -144.675781 85.765625 -154.8125 C 85.765625 -164.945312 85.710938 -171.382812 85.609375 -174.125 C 85.515625 -176.863281 85.0625 -180.003906 84.25 -183.546875 C 83.4375 -187.097656 82.21875 -189.484375 80.59375 -190.703125 C 76.34375 -193.953125 70.265625 -195.578125 62.359375 -195.578125 L 44.40625 -195.578125 L 47.140625 -187.96875 L 47.140625 -133.21875 L 44.71875 -126.21875 Z M 62.359375 -126.21875 "/></g></g></g><g fill="#ffffff" fill-opacity="1"><g transform="translate(1754.547076, 422.146959)"><g><path d="M 18.25 -18.546875 L 18.25 -219 L 24.640625 -219 C 35.785156 -219 42.320312 -218.238281 44.25 -216.71875 C 46.175781 -215.195312 47.140625 -209.769531 47.140625 -200.4375 L 47.140625 0 L 40.15625 0 C 29.195312 0 22.804688 -0.757812 20.984375 -2.28125 C 19.160156 -3.800781 18.25 -9.222656 18.25 -18.546875 Z M 18.25 -18.546875 "/></g></g></g><g fill="#ffffff" fill-opacity="1"><g transform="translate(1819.930778, 422.146959)"><g><path d="M 46.84375 -18.546875 C 46.84375 -9.222656 45.925781 -3.800781 44.09375 -2.28125 C 42.269531 -0.757812 35.882812 0 24.9375 0 L 18.25 0 L 18.25 -219.296875 L 67.515625 -222.640625 C 87.796875 -222.640625 101.789062 -220.003906 109.5 -214.734375 C 112.332031 -212.703125 114.710938 -210.875 116.640625 -209.25 C 118.566406 -207.632812 120.1875 -205.15625 121.5 -201.8125 C 122.820312 -198.46875 123.835938 -195.726562 124.546875 -193.59375 C 125.253906 -191.46875 125.710938 -188.171875 125.921875 -183.703125 C 126.523438 -176.003906 126.828125 -168.25 126.828125 -160.4375 C 126.828125 -152.632812 126.722656 -146.753906 126.515625 -142.796875 C 126.316406 -138.847656 125.660156 -134.035156 124.546875 -128.359375 C 123.429688 -122.679688 121.65625 -118.421875 119.21875 -115.578125 C 116.789062 -112.742188 113.445312 -109.90625 109.1875 -107.0625 C 101.6875 -101.789062 87.898438 -99.15625 67.828125 -99.15625 L 46.84375 -99.15625 Z M 67.828125 -126.21875 C 77.765625 -126.21875 85.46875 -127.84375 90.9375 -131.09375 C 94.382812 -133.125 96.414062 -138.5 97.03125 -147.21875 C 97.226562 -150.050781 97.328125 -154.554688 97.328125 -160.734375 C 97.328125 -166.921875 97.222656 -171.382812 97.015625 -174.125 C 96.816406 -176.863281 96.257812 -180.003906 95.34375 -183.546875 C 94.4375 -187.097656 92.96875 -189.484375 90.9375 -190.703125 C 85.46875 -193.953125 77.765625 -195.578125 67.828125 -195.578125 L 44.40625 -195.578125 L 46.84375 -187.96875 L 46.84375 -133.21875 L 44.40625 -126.21875 Z M 67.828125 -126.21875 "/></g></g></g><g fill="#ffffff" fill-opacity="1"><g transform="translate(1961.950361, 422.146959)"><g><path d="M 84.5625 -27.0625 C 95.507812 -27.0625 101.945312 -26.25 103.875 -24.625 C 105.800781 -23.007812 106.765625 -17.539062 106.765625 -8.21875 L 106.765625 0 L 18.25 0 L 18.25 -219 L 25.859375 -219 C 36.804688 -219 43.242188 -218.238281 45.171875 -216.71875 C 47.097656 -215.195312 48.0625 -209.769531 48.0625 -200.4375 L 48.0625 -34.671875 L 45.3125 -27.0625 Z M 84.5625 -27.0625 "/></g></g></g><g fill="#ffffff" fill-opacity="1"><g transform="translate(2074.775351, 422.146959)"><g><path d="M 113.75 -27.0625 L 113.75 0 L 18.25 0 L 18.25 -219 L 110.71875 -219 L 110.71875 -193.140625 L 45.3125 -193.140625 L 48.0625 -185.53125 L 48.0625 -139 L 45.3125 -131.390625 L 107.0625 -131.390625 L 107.0625 -104.328125 L 45.625 -104.328125 L 48.0625 -97.328125 L 48.0625 -34.671875 L 45.3125 -27.0625 Z M 113.75 -27.0625 "/></g></g></g><g fill="#ffffff" fill-opacity="1"><g transform="translate(2197.636001, 422.146959)"><g/></g></g><g fill="#ffffff" fill-opacity="1"><g transform="translate(2255.416926, 422.146959)"><g><path d="M 42.28125 -157.25 L 42.28125 -18.546875 C 42.28125 -9.222656 41.316406 -3.800781 39.390625 -2.28125 C 37.460938 -0.757812 31.125 0 20.375 0 L 13.6875 0 L 13.6875 -219 L 20.6875 -219 C 30.414062 -219 36.492188 -218.285156 38.921875 -216.859375 C 41.359375 -215.441406 44.503906 -210.578125 48.359375 -202.265625 L 81.515625 -126.53125 L 87.59375 -126.53125 L 128.359375 -219 L 132.921875 -219 C 143.867188 -219 150.304688 -218.238281 152.234375 -216.71875 C 154.160156 -215.195312 155.125 -209.769531 155.125 -200.4375 L 155.125 0 L 148.421875 0 C 137.472656 0 131.085938 -0.757812 129.265625 -2.28125 C 127.441406 -3.800781 126.53125 -9.222656 126.53125 -18.546875 L 126.21875 -156.9375 L 125.3125 -156.9375 L 102.8125 -102.5 L 94.59375 -87.296875 L 74.515625 -87.296875 L 66.3125 -102.5 L 43.1875 -157.25 Z M 42.28125 -157.25 "/></g></g></g><g fill="#ffffff" fill-opacity="1"><g transform="translate(2424.502351, 422.146959)"><g><path d="M 74.359375 2.125 C 51.347656 2.125 35.734375 -6.59375 27.515625 -24.03125 C 19.304688 -41.46875 15.203125 -70.257812 15.203125 -110.40625 C 15.203125 -150.550781 19.5625 -179.289062 28.28125 -196.625 C 37 -213.96875 52.359375 -222.640625 74.359375 -222.640625 C 96.359375 -222.640625 111.617188 -214.019531 120.140625 -196.78125 C 128.660156 -179.550781 132.921875 -150.757812 132.921875 -110.40625 C 132.921875 -70.050781 128.914062 -41.207031 120.90625 -23.875 C 112.894531 -6.539062 97.378906 2.125 74.359375 2.125 Z M 44.109375 -111.328125 C 44.109375 -82.328125 46.335938 -60.675781 50.796875 -46.375 C 55.253906 -32.082031 63.109375 -24.9375 74.359375 -24.9375 C 85.617188 -24.9375 93.476562 -32.082031 97.9375 -46.375 C 102.394531 -60.675781 104.625 -82.222656 104.625 -111.015625 C 104.625 -167.390625 94.535156 -195.578125 74.359375 -195.578125 C 54.191406 -195.578125 44.109375 -167.492188 44.109375 -111.328125 Z M 44.109375 -111.328125 "/></g></g></g><g fill="#ffffff" fill-opacity="1"><g transform="translate(2572.604065, 422.146959)"><g><path d="M 111.015625 -219 C 118.921875 -219 123.988281 -218.539062 126.21875 -217.625 C 128.457031 -216.707031 129.578125 -214.425781 129.578125 -210.78125 C 129.578125 -207.132812 113.960938 -136.875 82.734375 0 L 55.359375 0 L 6.078125 -219 L 17.03125 -219 C 26.363281 -219 31.941406 -218.238281 33.765625 -216.71875 C 35.585938 -215.195312 37.515625 -209.972656 39.546875 -201.046875 L 67.21875 -49.578125 L 70.5625 -49.578125 L 102.5 -219 Z M 111.015625 -219 "/></g></g></g><g fill="#ffffff" fill-opacity="1"><g transform="translate(2708.237235, 422.146959)"><g><path d="M 18.25 -18.546875 L 18.25 -219 L 24.640625 -219 C 35.785156 -219 42.320312 -218.238281 44.25 -216.71875 C 46.175781 -215.195312 47.140625 -209.769531 47.140625 -200.4375 L 47.140625 0 L 40.15625 0 C 29.195312 0 22.804688 -0.757812 20.984375 -2.28125 C 19.160156 -3.800781 18.25 -9.222656 18.25 -18.546875 Z M 18.25 -18.546875 "/></g></g></g><g fill="#ffffff" fill-opacity="1"><g transform="translate(2773.620938, 422.146959)"><g><path d="M 113.75 -27.0625 L 113.75 0 L 18.25 0 L 18.25 -219 L 110.71875 -219 L 110.71875 -193.140625 L 45.3125 -193.140625 L 48.0625 -185.53125 L 48.0625 -139 L 45.3125 -131.390625 L 107.0625 -131.390625 L 107.0625 -104.328125 L 45.625 -104.328125 L 48.0625 -97.328125 L 48.0625 -34.671875 L 45.3125 -27.0625 Z M 113.75 -27.0625 "/></g></g></g><g fill="#ff865b" fill-opacity="1"><g transform="translate(1501.223149, 702.736777)"><g><path d="M 50.5625 -12.03125 L 50.5625 0 L 8.109375 0 L 8.109375 -97.34375 L 49.21875 -97.34375 L 49.21875 -85.859375 L 20.140625 -85.859375 L 21.359375 -82.46875 L 21.359375 -61.78125 L 20.140625 -58.40625 L 47.59375 -58.40625 L 47.59375 -46.375 L 20.28125 -46.375 L 21.359375 -43.265625 L 21.359375 -15.40625 L 20.140625 -12.03125 Z M 50.5625 -12.03125 "/></g></g></g><g fill="#ff865b" fill-opacity="1"><g transform="translate(1555.810978, 702.736777)"><g><path d="M 40.015625 -29.75 L 40.015625 -97.34375 L 43 -97.34375 C 47.863281 -97.34375 50.703125 -97.003906 51.515625 -96.328125 C 52.328125 -95.648438 52.734375 -93.238281 52.734375 -89.09375 L 52.734375 0 L 48.671875 0 C 44.160156 0 41.363281 -0.335938 40.28125 -1.015625 C 39.207031 -1.691406 38.039062 -3.878906 36.78125 -7.578125 L 19.328125 -65.984375 L 18.65625 -65.984375 L 18.65625 -8.25 C 18.65625 -4.101562 18.25 -1.691406 17.4375 -1.015625 C 16.625 -0.335938 13.785156 0 8.921875 0 L 6.078125 0 L 6.078125 -97.34375 L 9.0625 -97.34375 C 13.476562 -97.34375 16.179688 -97.023438 17.171875 -96.390625 C 18.160156 -95.765625 19.378906 -93.5625 20.828125 -89.78125 L 39.34375 -29.75 Z M 40.015625 -29.75 "/></g></g></g><g fill="#ff865b" fill-opacity="1"><g transform="translate(1614.722545, 702.736777)"><g><path d="M 8.109375 -97.34375 L 11.09375 -97.34375 C 15.957031 -97.34375 18.796875 -97.003906 19.609375 -96.328125 C 20.421875 -95.648438 20.828125 -93.238281 20.828125 -89.09375 L 20.828125 -12.171875 C 20.828125 -5.953125 20.644531 -1.648438 20.28125 0.734375 C 19.914062 3.128906 19.53125 5.539062 19.125 7.96875 C 18.71875 10.40625 18.195312 12.207031 17.5625 13.375 C 16.9375 14.550781 16.148438 15.953125 15.203125 17.578125 C 14.265625 19.203125 13.140625 20.414062 11.828125 21.21875 C 10.523438 22.03125 9.0625 22.84375 7.4375 23.65625 C 4.550781 25.101562 0.316406 25.828125 -5.265625 25.828125 L -5.265625 15.140625 C -0.671875 15.140625 2.4375 13.609375 4.0625 10.546875 C 5.050781 8.742188 5.835938 7.050781 6.421875 5.46875 C 7.003906 3.894531 7.390625 1.441406 7.578125 -1.890625 C 7.929688 -6.671875 8.109375 -12.800781 8.109375 -20.28125 Z M 8.109375 -97.34375 "/></g></g></g><g fill="#ff865b" fill-opacity="1"><g transform="translate(1643.637873, 702.736777)"><g><path d="M 33.0625 0.953125 C 22.832031 0.953125 15.890625 -2.921875 12.234375 -10.671875 C 8.585938 -18.429688 6.765625 -31.234375 6.765625 -49.078125 C 6.765625 -66.921875 8.703125 -79.695312 12.578125 -87.40625 C 16.453125 -95.113281 23.28125 -98.96875 33.0625 -98.96875 C 42.84375 -98.96875 49.625 -95.132812 53.40625 -87.46875 C 57.1875 -79.8125 59.078125 -67.015625 59.078125 -49.078125 C 59.078125 -31.140625 57.296875 -18.316406 53.734375 -10.609375 C 50.179688 -2.898438 43.289062 0.953125 33.0625 0.953125 Z M 19.609375 -49.484375 C 19.609375 -36.597656 20.597656 -26.976562 22.578125 -20.625 C 24.554688 -14.269531 28.046875 -11.09375 33.046875 -11.09375 C 38.054688 -11.09375 41.550781 -14.269531 43.53125 -20.625 C 45.519531 -26.976562 46.515625 -36.550781 46.515625 -49.34375 C 46.515625 -74.40625 42.03125 -86.9375 33.0625 -86.9375 C 24.09375 -86.9375 19.609375 -74.453125 19.609375 -49.484375 Z M 19.609375 -49.484375 "/></g></g></g><g fill="#ff865b" fill-opacity="1"><g transform="translate(1709.440489, 702.736777)"><g><path d="M 44.609375 -97.34375 C 47.859375 -97.34375 50 -97.160156 51.03125 -96.796875 C 52.070312 -96.441406 52.59375 -95.539062 52.59375 -94.09375 C 52.59375 -92.65625 46.6875 -76.835938 34.875 -46.640625 L 34.875 0 L 31.90625 0 C 27.039062 0 24.175781 -0.335938 23.3125 -1.015625 C 22.457031 -1.691406 22.03125 -4.101562 22.03125 -8.25 L 22.03125 -46.78125 L 2.703125 -97.34375 L 7.984375 -97.34375 C 11.859375 -97.34375 14.242188 -97.023438 15.140625 -96.390625 C 16.046875 -95.765625 17.21875 -93.5625 18.65625 -89.78125 L 27.578125 -62.59375 L 29.609375 -62.59375 L 41.109375 -97.34375 Z M 44.609375 -97.34375 "/></g></g></g><g fill="#ff865b" fill-opacity="1"><g transform="translate(1764.703934, 702.736777)"><g/></g></g><g fill="#ff865b" fill-opacity="1"><g transform="translate(1790.376434, 702.736777)"><g><path d="M 50.5625 -12.03125 L 50.5625 0 L 8.109375 0 L 8.109375 -97.34375 L 49.21875 -97.34375 L 49.21875 -85.859375 L 20.140625 -85.859375 L 21.359375 -82.46875 L 21.359375 -61.78125 L 20.140625 -58.40625 L 47.59375 -58.40625 L 47.59375 -46.375 L 20.28125 -46.375 L 21.359375 -43.265625 L 21.359375 -15.40625 L 20.140625 -12.03125 Z M 50.5625 -12.03125 "/></g></g></g><g fill="#ff865b" fill-opacity="1"><g transform="translate(1844.964262, 702.736777)"><g><path d="M 49.34375 -97.34375 C 52.863281 -97.34375 55.117188 -97.140625 56.109375 -96.734375 C 57.097656 -96.328125 57.59375 -95.3125 57.59375 -93.6875 C 57.59375 -92.070312 50.65625 -60.84375 36.78125 0 L 24.609375 0 L 2.703125 -97.34375 L 7.578125 -97.34375 C 11.722656 -97.34375 14.195312 -97.003906 15 -96.328125 C 15.8125 -95.648438 16.671875 -93.332031 17.578125 -89.375 L 29.875 -22.03125 L 31.359375 -22.03125 L 45.5625 -97.34375 Z M 49.34375 -97.34375 "/></g></g></g><g fill="#ff865b" fill-opacity="1"><g transform="translate(1905.227065, 702.736777)"><g><path d="M 50.5625 -12.03125 L 50.5625 0 L 8.109375 0 L 8.109375 -97.34375 L 49.21875 -97.34375 L 49.21875 -85.859375 L 20.140625 -85.859375 L 21.359375 -82.46875 L 21.359375 -61.78125 L 20.140625 -58.40625 L 47.59375 -58.40625 L 47.59375 -46.375 L 20.28125 -46.375 L 21.359375 -43.265625 L 21.359375 -15.40625 L 20.140625 -12.03125 Z M 50.5625 -12.03125 "/></g></g></g><g fill="#ff865b" fill-opacity="1"><g transform="translate(1959.814893, 702.736777)"><g><path d="M 11.359375 0 L 8.109375 0 L 8.109375 -97.484375 L 27.453125 -98.96875 C 35.554688 -98.96875 41.144531 -97.796875 44.21875 -95.453125 C 45.382812 -94.546875 46.375 -93.734375 47.1875 -93.015625 C 48 -92.296875 48.675781 -91.21875 49.21875 -89.78125 L 50.296875 -85.984375 C 50.921875 -84.273438 51.234375 -82.023438 51.234375 -79.234375 L 51.234375 -71.390625 C 51.234375 -58.410156 49.390625 -50.296875 45.703125 -47.046875 C 44.078125 -45.609375 41.957031 -44.753906 39.34375 -44.484375 L 60.84375 0 L 56.375 0 C 51.875 0 48.8125 -0.425781 47.1875 -1.28125 C 45.5625 -2.132812 44.070312 -4.097656 42.71875 -7.171875 L 26.09375 -44.078125 L 19.734375 -44.078125 L 20.953125 -40.703125 L 21.09375 -8.25 C 21.09375 -4.101562 20.6875 -1.691406 19.875 -1.015625 C 19.0625 -0.335938 16.222656 0 11.359375 0 Z M 27.71875 -56.109375 C 32.582031 -56.109375 35.53125 -57.097656 36.5625 -59.078125 C 37.601562 -61.066406 38.125 -64.3125 38.125 -68.8125 C 38.125 -73.320312 38.097656 -76.1875 38.046875 -77.40625 C 38.003906 -78.625 37.800781 -80.019531 37.4375 -81.59375 C 37.082031 -83.175781 36.546875 -84.234375 35.828125 -84.765625 C 33.929688 -86.210938 31.226562 -86.9375 27.71875 -86.9375 L 19.734375 -86.9375 L 20.953125 -83.5625 L 20.953125 -59.21875 L 19.875 -56.109375 Z M 27.71875 -56.109375 "/></g></g></g><g fill="#ff865b" fill-opacity="1"><g transform="translate(2023.320524, 702.736777)"><g><path d="M 44.609375 -97.34375 C 47.859375 -97.34375 50 -97.160156 51.03125 -96.796875 C 52.070312 -96.441406 52.59375 -95.539062 52.59375 -94.09375 C 52.59375 -92.65625 46.6875 -76.835938 34.875 -46.640625 L 34.875 0 L 31.90625 0 C 27.039062 0 24.175781 -0.335938 23.3125 -1.015625 C 22.457031 -1.691406 22.03125 -4.101562 22.03125 -8.25 L 22.03125 -46.78125 L 2.703125 -97.34375 L 7.984375 -97.34375 C 11.859375 -97.34375 14.242188 -97.023438 15.140625 -96.390625 C 16.046875 -95.765625 17.21875 -93.5625 18.65625 -89.78125 L 27.578125 -62.59375 L 29.609375 -62.59375 L 41.109375 -97.34375 Z M 44.609375 -97.34375 "/></g></g></g><g fill="#ff865b" fill-opacity="1"><g transform="translate(2078.583969, 702.736777)"><g/></g></g><g fill="#ff865b" fill-opacity="1"><g transform="translate(2104.256469, 702.736777)"><g><path d="M 18.796875 -69.90625 L 18.796875 -8.25 C 18.796875 -4.101562 18.363281 -1.691406 17.5 -1.015625 C 16.644531 -0.335938 13.832031 0 9.0625 0 L 6.078125 0 L 6.078125 -97.34375 L 9.1875 -97.34375 C 13.519531 -97.34375 16.222656 -97.023438 17.296875 -96.390625 C 18.378906 -95.765625 19.78125 -93.601562 21.5 -89.90625 L 36.234375 -56.25 L 38.9375 -56.25 L 57.0625 -97.34375 L 59.078125 -97.34375 C 63.953125 -97.34375 66.816406 -97.003906 67.671875 -96.328125 C 68.523438 -95.648438 68.953125 -93.238281 68.953125 -89.09375 L 68.953125 0 L 65.984375 0 C 61.109375 0 58.265625 -0.335938 57.453125 -1.015625 C 56.648438 -1.691406 56.25 -4.101562 56.25 -8.25 L 56.109375 -69.765625 L 55.703125 -69.765625 L 45.703125 -45.5625 L 42.046875 -38.796875 L 33.125 -38.796875 L 29.46875 -45.5625 L 19.203125 -69.90625 Z M 18.796875 -69.90625 "/></g></g></g><g fill="#ff865b" fill-opacity="1"><g transform="translate(2179.382277, 702.736777)"><g><path d="M 33.0625 0.953125 C 22.832031 0.953125 15.890625 -2.921875 12.234375 -10.671875 C 8.585938 -18.429688 6.765625 -31.234375 6.765625 -49.078125 C 6.765625 -66.921875 8.703125 -79.695312 12.578125 -87.40625 C 16.453125 -95.113281 23.28125 -98.96875 33.0625 -98.96875 C 42.84375 -98.96875 49.625 -95.132812 53.40625 -87.46875 C 57.1875 -79.8125 59.078125 -67.015625 59.078125 -49.078125 C 59.078125 -31.140625 57.296875 -18.316406 53.734375 -10.609375 C 50.179688 -2.898438 43.289062 0.953125 33.0625 0.953125 Z M 19.609375 -49.484375 C 19.609375 -36.597656 20.597656 -26.976562 22.578125 -20.625 C 24.554688 -14.269531 28.046875 -11.09375 33.046875 -11.09375 C 38.054688 -11.09375 41.550781 -14.269531 43.53125 -20.625 C 45.519531 -26.976562 46.515625 -36.550781 46.515625 -49.34375 C 46.515625 -74.40625 42.03125 -86.9375 33.0625 -86.9375 C 24.09375 -86.9375 19.609375 -74.453125 19.609375 -49.484375 Z M 19.609375 -49.484375 "/></g></g></g><g fill="#ff865b" fill-opacity="1"><g transform="translate(2245.184892, 702.736777)"><g><path d="M 18.796875 -69.90625 L 18.796875 -8.25 C 18.796875 -4.101562 18.363281 -1.691406 17.5 -1.015625 C 16.644531 -0.335938 13.832031 0 9.0625 0 L 6.078125 0 L 6.078125 -97.34375 L 9.1875 -97.34375 C 13.519531 -97.34375 16.222656 -97.023438 17.296875 -96.390625 C 18.378906 -95.765625 19.78125 -93.601562 21.5 -89.90625 L 36.234375 -56.25 L 38.9375 -56.25 L 57.0625 -97.34375 L 59.078125 -97.34375 C 63.953125 -97.34375 66.816406 -97.003906 67.671875 -96.328125 C 68.523438 -95.648438 68.953125 -93.238281 68.953125 -89.09375 L 68.953125 0 L 65.984375 0 C 61.109375 0 58.265625 -0.335938 57.453125 -1.015625 C 56.648438 -1.691406 56.25 -4.101562 56.25 -8.25 L 56.109375 -69.765625 L 55.703125 -69.765625 L 45.703125 -45.5625 L 42.046875 -38.796875 L 33.125 -38.796875 L 29.46875 -45.5625 L 19.203125 -69.90625 Z M 18.796875 -69.90625 "/></g></g></g><g fill="#ff865b" fill-opacity="1"><g transform="translate(2320.3107, 702.736777)"><g><path d="M 50.5625 -12.03125 L 50.5625 0 L 8.109375 0 L 8.109375 -97.34375 L 49.21875 -97.34375 L 49.21875 -85.859375 L 20.140625 -85.859375 L 21.359375 -82.46875 L 21.359375 -61.78125 L 20.140625 -58.40625 L 47.59375 -58.40625 L 47.59375 -46.375 L 20.28125 -46.375 L 21.359375 -43.265625 L 21.359375 -15.40625 L 20.140625 -12.03125 Z M 50.5625 -12.03125 "/></g></g></g><g fill="#ff865b" fill-opacity="1"><g transform="translate(2374.898528, 702.736777)"><g><path d="M 40.015625 -29.75 L 40.015625 -97.34375 L 43 -97.34375 C 47.863281 -97.34375 50.703125 -97.003906 51.515625 -96.328125 C 52.328125 -95.648438 52.734375 -93.238281 52.734375 -89.09375 L 52.734375 0 L 48.671875 0 C 44.160156 0 41.363281 -0.335938 40.28125 -1.015625 C 39.207031 -1.691406 38.039062 -3.878906 36.78125 -7.578125 L 19.328125 -65.984375 L 18.65625 -65.984375 L 18.65625 -8.25 C 18.65625 -4.101562 18.25 -1.691406 17.4375 -1.015625 C 16.625 -0.335938 13.785156 0 8.921875 0 L 6.078125 0 L 6.078125 -97.34375 L 9.0625 -97.34375 C 13.476562 -97.34375 16.179688 -97.023438 17.171875 -96.390625 C 18.160156 -95.765625 19.378906 -93.5625 20.828125 -89.78125 L 39.34375 -29.75 Z M 40.015625 -29.75 "/></g></g></g><g fill="#ff865b" fill-opacity="1"><g transform="translate(2433.810096, 702.736777)"><g><path d="M 46.375 -85.859375 L 29.875 -85.859375 L 31.09375 -82.46875 L 31.09375 -8.25 C 31.09375 -4.101562 30.664062 -1.691406 29.8125 -1.015625 C 28.957031 -0.335938 26.097656 0 21.234375 0 L 17.984375 0 L 17.984375 -82.46875 L 18.921875 -85.859375 L 2.703125 -85.859375 L 2.703125 -97.34375 L 46.375 -97.34375 Z M 46.375 -85.859375 "/></g></g></g><g fill="#ff865b" fill-opacity="1"><g transform="translate(2482.921849, 702.736777)"><g/></g></g><g clip-path="url(#e26515c381)"><g clip-path="url(#22d5bac785)"><g clip-path="url(#27bc6160ac)"><path fill="#94a0a9" d="M 432.71875 859.292969 L 502.546875 789.464844 L 572.375 859.292969 L 502.546875 929.121094 Z M 432.71875 859.292969 " fill-opacity="1" fill-rule="nonzero"/></g></g></g><g clip-path="url(#15e9ac322a)"><g clip-path="url(#c12e7b9e33)"><g clip-path="url(#544a91140d)"><path fill="#ff865b" d="M 833.140625 125.441406 C 769.191406 189.390625 769.191406 293.171875 833.140625 357.121094 C 858.882812 382.863281 891.007812 398.164062 924.453125 403.234375 L 953.234375 374.449219 C 944.722656 372.828125 936.714844 368.675781 930.128906 362.085938 C 912.59375 344.554688 912.59375 316.175781 930.128906 298.644531 C 947.660156 281.109375 976.039062 281.109375 993.570312 298.644531 C 1000.160156 305.230469 1004.214844 313.339844 1005.9375 321.75 L 1028.941406 298.746094 C 1020.429688 297.125 1012.421875 292.96875 1005.835938 286.378906 C 988.300781 268.847656 988.300781 240.46875 1005.835938 222.9375 C 1023.367188 205.40625 1051.746094 205.40625 1069.277344 222.9375 C 1086.808594 240.46875 1086.808594 268.847656 1069.277344 286.378906 C 1063.804688 291.851562 1057.421875 295.601562 1050.527344 297.628906 L 1085.289062 332.390625 C 1128.058594 268.746094 1121.167969 181.789062 1064.917969 125.542969 C 1000.664062 61.492188 897.089844 61.492188 833.140625 125.441406 Z M 902.5625 315.265625 C 885.03125 332.796875 856.652344 332.796875 839.121094 315.265625 C 821.585938 297.730469 821.585938 269.355469 839.121094 251.820312 C 856.652344 234.289062 885.03125 234.289062 902.5625 251.820312 C 920.09375 269.355469 919.992188 297.832031 902.5625 315.265625 Z M 917.15625 209.457031 C 899.625 226.992188 871.246094 226.992188 853.714844 209.457031 C 836.179688 191.925781 836.179688 163.546875 853.714844 146.015625 C 871.246094 128.484375 899.625 128.484375 917.15625 146.015625 C 934.589844 163.648438 934.589844 192.027344 917.15625 209.457031 Z M 1022.859375 194.964844 C 1005.328125 212.5 976.949219 212.5 959.417969 194.964844 C 941.886719 177.433594 941.886719 149.054688 959.417969 131.523438 C 976.949219 113.988281 1005.328125 113.988281 1022.859375 131.523438 C 1040.394531 149.054688 1040.394531 177.433594 1022.859375 194.964844 Z M 1022.859375 194.964844 " fill-opacity="1" fill-rule="nonzero"/></g></g></g><g clip-path="url(#4848807600)"><g clip-path="url(#40f9e5a091)"><g clip-path="url(#446c261b1f)"><path fill="#ff865b" d="M 593.050781 361.679688 C 529.101562 425.632812 529.101562 529.410156 593.050781 593.359375 C 641.089844 641.398438 711.625 653.355469 770.8125 629.234375 L 745.980469 604.40625 C 728.652344 615.65625 705.140625 613.628906 689.9375 598.425781 C 672.402344 580.894531 672.402344 552.515625 689.9375 534.984375 C 707.46875 517.449219 735.847656 517.449219 753.378906 534.984375 C 760.777344 542.382812 765.035156 551.707031 766.148438 561.335938 L 791.992188 535.492188 C 782.367188 534.375 773.042969 530.121094 765.644531 522.722656 C 748.109375 505.1875 748.109375 476.8125 765.644531 459.277344 C 783.175781 441.746094 811.554688 441.746094 829.085938 459.277344 C 836.484375 466.675781 840.742188 476 841.855469 485.628906 L 871.246094 456.238281 C 866.6875 421.679688 851.28125 388.234375 824.726562 361.679688 C 760.777344 297.730469 657 297.730469 593.050781 361.679688 Z M 662.574219 551.605469 C 645.039062 569.136719 616.664062 569.136719 599.128906 551.605469 C 581.597656 534.070312 581.597656 505.695312 599.128906 488.160156 C 616.664062 470.628906 645.039062 470.628906 662.574219 488.160156 C 680.105469 505.695312 680.105469 534.070312 662.574219 551.605469 Z M 677.066406 445.699219 C 659.535156 463.230469 631.15625 463.230469 613.625 445.699219 C 596.089844 428.164062 596.089844 399.789062 613.625 382.253906 C 631.15625 364.722656 659.535156 364.722656 677.066406 382.253906 C 694.597656 399.789062 694.597656 428.164062 677.066406 445.699219 Z M 782.972656 367.761719 C 800.507812 385.296875 800.507812 413.671875 782.972656 431.203125 C 765.441406 448.738281 737.0625 448.738281 719.53125 431.203125 C 701.996094 413.671875 701.996094 385.296875 719.53125 367.761719 C 736.960938 350.332031 765.441406 350.230469 782.972656 367.761719 Z M 782.972656 367.761719 " fill-opacity="1" fill-rule="nonzero"/></g></g></g><g clip-path="url(#019f4b4f5c)"><g clip-path="url(#1fb1a2ca79)"><g clip-path="url(#62ea81ef0e)"><path fill="#94a0a9" d="M 1109.613281 377.390625 L 1040.089844 307.867188 L 755 592.953125 L 975.9375 813.890625 L 1261.023438 528.800781 L 1204.070312 471.84375 L 1386.492188 383.472656 L 1197.074219 194.054688 Z M 1109.613281 377.390625 " fill-opacity="1" fill-rule="nonzero"/></g></g></g><g clip-path="url(#5c619d9756)"><g clip-path="url(#015f4f2fd5)"><g clip-path="url(#51d17ae5ca)"><path fill="#ffffff" d="M 1190.488281 529.613281 L 976.445312 743.65625 L 827.160156 594.371094 L 1041.101562 380.429688 L 1190.386719 529.714844 Z M 976.445312 723.386719 L 1170.117188 529.714844 L 1041.101562 400.699219 L 847.429688 594.371094 Z M 976.445312 723.386719 " fill-opacity="1" fill-rule="nonzero"/></g></g></g><g clip-path="url(#613b1cee4d)"><g clip-path="url(#3742753b86)"><g clip-path="url(#9b252dcc70)"><path fill="#ffffff" d="M 1179.542969 230.640625 L 1350.109375 401.207031 L 1364.90625 393.910156 L 1186.738281 215.742188 Z M 1179.542969 230.640625 " fill-opacity="1" fill-rule="nonzero"/></g></g></g></svg>